<?xml version="1.0" standalone="no"?>
<!DOCTYPE svg PUBLIC "-//W3C//DTD SVG 20010904//EN"
 "http://www.w3.org/TR/2001/REC-SVG-20010904/DTD/svg10.dtd">
<svg version="1.0" xmlns="http://www.w3.org/2000/svg"
 width="326.000000pt" height="50.000000pt" viewBox="0 0 326.000000 50.000000"
 preserveAspectRatio="xMidYMid meet">

<g transform="translate(0.000000,50.000000) scale(0.100000,-0.100000)"
fill="currentColor" stroke="none">
<path d="M112 443 c-30 -12 -92 -132 -92 -179 0 -28 63 -132 104 -171 106 -99
266 -43 296 103 26 123 -21 211 -91 173 -18 -9 -26 -5 -58 30 -30 32 -45 41
-72 41 -19 0 -43 2 -54 5 -11 2 -26 1 -33 -2z m78 -94 c47 -67 66 -75 26 -10
-30 47 -34 76 -10 67 9 -3 17 -6 19 -6 3 0 23 -27 46 -61 42 -63 45 -64 63
-27 16 32 35 33 47 1 14 -36 6 -121 -16 -162 -31 -62 -113 -88 -173 -57 -51
27 -132 133 -132 173 0 34 13 28 60 -24 46 -54 44 -42 -7 28 -18 26 -33 54
-33 63 0 32 36 15 70 -33 50 -70 51 -54 0 23 -40 62 -44 86 -16 86 7 0 32 -27
56 -61z"/>
<path d="M517 434 c-4 -4 -7 -79 -7 -166 l0 -158 45 0 45 0 0 60 0 60 60 0 60
0 0 -60 0 -60 45 0 45 0 -2 163 -3 162 -42 3 -43 3 0 -66 0 -66 -57 3 -58 3
-5 60 -5 60 -35 3 c-20 2 -39 0 -43 -4z"/>
<path d="M2810 390 c0 -16 -4 -30 -10 -30 -5 0 -10 -16 -10 -35 0 -19 5 -35
10 -35 6 0 10 -21 10 -47 0 -111 22 -138 106 -131 36 3 39 6 42 35 3 28 0 32
-25 35 -26 3 -28 6 -31 55 -3 50 -2 52 25 55 23 2 29 8 31 35 3 28 0 32 -25
35 -22 2 -29 9 -31 31 -3 25 -7 27 -48 27 -42 0 -44 -1 -44 -30z"/>
<path d="M955 363 c-11 -3 -34 -16 -52 -29 -74 -56 -58 -174 29 -214 54 -25
72 -25 123 0 100 49 102 185 2 231 -42 18 -64 21 -102 12z m82 -99 c15 -24 15
-29 2 -53 -18 -32 -54 -39 -80 -15 -37 34 -14 94 36 94 15 0 31 -10 42 -26z"/>
<path d="M1510 353 c-76 -39 -63 -112 28 -146 28 -11 52 -24 52 -28 0 -13 -58
-11 -82 2 -18 10 -25 8 -41 -12 -18 -22 -18 -24 -1 -36 35 -25 95 -36 136 -24
96 29 88 134 -12 156 -16 3 -34 12 -40 19 -16 20 12 28 51 14 27 -9 34 -8 46
7 17 25 17 32 -6 44 -38 21 -95 23 -131 4z"/>
<path d="M1780 352 c-43 -21 -80 -75 -80 -117 0 -72 86 -144 155 -131 19 4 47
17 61 29 26 22 26 22 6 40 -16 15 -25 16 -41 8 -30 -16 -56 -13 -76 9 -18 20
-17 20 63 20 l82 0 0 35 c0 50 -23 89 -64 109 -43 20 -63 20 -106 -2z m78 -64
c21 -21 13 -28 -28 -28 -22 0 -40 4 -40 8 0 14 23 32 40 32 9 0 21 -5 28 -12z"/>
<path d="M2115 353 c-20 -11 -30 -12 -33 -4 -2 6 -21 11 -43 11 l-39 0 0 -160
0 -160 40 0 40 0 0 46 c0 40 2 45 18 39 62 -25 71 -26 104 -11 44 21 68 63 68
121 0 60 -23 103 -65 121 -43 17 -53 17 -90 -3z m62 -89 c15 -24 15 -29 2 -53
-21 -37 -69 -36 -87 2 -29 61 48 107 85 51z"/>
<path d="M2372 361 c-43 -11 -46 -15 -38 -47 6 -23 11 -26 44 -22 41 6 82 -6
82 -22 0 -5 -20 -10 -45 -10 -57 0 -91 -16 -105 -49 -28 -68 43 -127 116 -96
20 8 36 10 39 4 4 -5 24 -9 46 -9 l39 0 0 84 c0 96 -9 128 -42 150 -30 19 -94
27 -136 17z m84 -156 c9 -21 -15 -47 -40 -43 -24 4 -34 37 -14 49 21 14 48 10
54 -6z"/>
<path d="M2725 357 c-11 -6 -25 -18 -32 -26 -11 -14 -12 -13 -13 7 0 21 -4 23
-42 20 l-43 -3 -3 -80 c-2 -44 0 -99 3 -123 6 -41 7 -42 46 -42 l39 0 0 49 c0
68 13 97 49 109 28 10 31 15 31 51 0 46 -7 54 -35 38z"/>
<path d="M1170 260 c0 -113 6 -132 48 -149 24 -10 36 -9 68 4 25 10 40 12 42
5 2 -5 21 -10 43 -10 l39 0 0 125 0 125 -40 0 -40 0 0 -74 c0 -54 -4 -79 -16
-90 -35 -36 -52 -10 -56 84 l-3 75 -42 3 -43 3 0 -101z"/>
<path d="M3001 308 c77 -192 80 -209 37 -201 -18 4 -27 -1 -36 -21 -10 -22 -9
-27 8 -36 30 -16 95 -12 119 7 19 16 121 260 121 291 0 9 -12 12 -42 10 l-42
-3 -21 -70 c-14 -43 -25 -64 -29 -55 -3 8 -14 40 -24 70 l-19 55 -46 3 -47 3
21 -53z"/>
</g>
</svg>
